<svg width="36" height="23" viewBox="0 0 36 23" fill="none" xmlns="http://www.w3.org/2000/svg">
<path fill-rule="evenodd" clip-rule="evenodd" d="M14.837 10.3571C15.5459 9.99048 16.1081 9.59941 16.4747 9.15945C17.1347 8.3773 17.4526 7.32627 17.4526 6.05527C17.4526 4.80871 17.1347 3.73325 16.4747 2.82888C15.3747 1.36234 13.5415 0.604627 10.9259 0.580185H0.585693V21.6739H10.2169C11.2925 21.6739 12.3191 21.5762 13.248 21.3806C14.1769 21.1851 14.9837 20.8429 15.6682 20.3296C16.2793 19.8896 16.7682 19.3275 17.1837 18.6675C17.8193 17.6654 18.1369 16.5655 18.1369 15.2945C18.1369 14.0724 17.8681 13.0458 17.3059 12.1903C16.7437 11.3348 15.9125 10.7238 14.837 10.3327V10.3571ZM4.86351 4.24654H9.50806C10.5347 4.24654 11.3658 4.34431 12.0258 4.56429C12.7836 4.88204 13.1748 5.51754 13.1748 6.51967C13.1748 7.3996 12.8815 8.0351 12.2948 8.3773C11.7081 8.71949 10.9503 8.89058 10.0214 8.89058H4.81472V4.24654H4.86351ZM12.2214 17.6409C11.708 17.8854 10.9747 18.0076 10.0458 18.0076H4.83919V12.3858H10.0947C11.0236 12.3858 11.7325 12.508 12.2458 12.7525C13.1503 13.168 13.6147 13.9257 13.6147 15.0256C13.6147 16.321 13.1503 17.201 12.1969 17.6654L12.2214 17.6409Z" fill="#B2FF02"/>
<path d="M31.8996 1.55825H22.7329V4.17359H31.8996V1.55825Z" fill="#B2FF02"/>
<path fill-rule="evenodd" clip-rule="evenodd" d="M35.0769 11.9215C34.8814 10.6994 34.4657 9.62394 33.8057 8.69514C33.0968 7.64412 32.1924 6.86196 31.068 6.39756C29.968 5.90871 28.7212 5.66429 27.3523 5.66429C25.0301 5.66429 23.1479 6.39756 21.7056 7.83966C20.2634 9.28176 19.53 11.3594 19.53 14.0725C19.53 16.9566 20.3368 19.0342 21.9502 20.3297C23.5635 21.6007 25.4212 22.2606 27.5235 22.2606C30.0657 22.2606 32.0702 21.5029 33.4879 19.9875C34.3924 19.0342 34.9057 18.081 35.028 17.1766H30.7991C30.5547 17.641 30.2612 17.9832 29.9435 18.2521C29.3568 18.7165 28.599 18.9609 27.6457 18.9609C26.7412 18.9609 25.9834 18.7654 25.3723 18.3743C24.3212 17.7388 23.7834 16.6389 23.7101 15.0746H35.2479C35.2723 13.7303 35.2234 12.6792 35.1012 11.9704L35.0769 11.9215ZM23.7835 12.337C23.9302 11.3105 24.2967 10.5283 24.8834 9.91725C25.4701 9.33064 26.3012 9.03733 27.3523 9.01289C28.3301 9.01289 29.1368 9.28175 29.7968 9.84393C30.4568 10.4061 30.8235 11.2371 30.8968 12.3126H23.759L23.7835 12.337Z" fill="#B2FF02"/>
</svg>
