<svg width="35" height="35" viewBox="0 0 35 35" fill="none" xmlns="http://www.w3.org/2000/svg">
<path fill-rule="evenodd" clip-rule="evenodd" d="M17.2254 0.0147858C7.74093 0.0147858 0.0163574 7.73857 0.0163574 17.2222C0.0163574 26.7058 7.74093 34.4296 17.2254 34.4296C26.7099 34.4296 34.4343 26.7058 34.4343 17.2222C34.4343 7.73857 26.7099 0.0147858 17.2254 0.0147858ZM28.8854 7.51859C31.0365 10.085 32.3321 13.3847 32.4054 16.9778C29.7165 16.3423 26.7344 16.3178 23.6788 16.8556C22.8966 17.0022 22.0898 17.1733 21.3076 17.3933C21.0387 16.6845 20.7698 15.9756 20.4764 15.2668C20.1831 14.558 19.8654 13.8492 19.5232 13.1648C23.141 11.7716 27.0765 9.7184 28.8854 7.49415V7.51859ZM17.2254 2.0435C21.1854 2.0435 24.7788 3.55893 27.4922 6.05205C26.441 7.49415 23.4343 9.59619 18.5943 11.3805C16.9076 8.25186 14.8787 5.36766 12.5564 2.77677C14.0231 2.31237 15.5876 2.0435 17.2254 2.0435ZM10.5764 3.58337C12.9475 6.12537 15.0009 8.98513 16.6876 12.0649C11.6764 13.6781 6.59204 14.3624 2.41202 13.9225C3.4387 9.3762 6.49418 5.58764 10.5764 3.58337ZM2.0453 17.2222C2.0453 16.7822 2.06979 16.3423 2.09423 15.9023C3.02313 16.0001 3.97645 16.049 4.97867 16.049C8.8898 16.049 13.3142 15.2912 17.6165 13.8736C18.2765 15.2179 18.8632 16.6111 19.401 18.0288C17.7143 18.6399 16.0764 19.3976 14.5364 20.3264C10.7475 22.5751 7.98538 25.4593 6.83648 28.2946C3.87869 25.5326 2.02083 21.5729 2.02083 17.2222H2.0453ZM17.2254 32.4009C13.9743 32.4009 10.9676 31.3743 8.49869 29.6389C9.25648 27.048 11.8476 24.2616 15.5632 22.0373C16.8588 21.2552 18.3987 20.5219 20.0609 19.9353C21.2343 23.6261 21.9676 27.5369 22.1876 31.5699C20.6231 32.1076 18.961 32.4009 17.2254 32.4009ZM24.1431 30.7388C23.8742 26.828 23.141 22.9906 21.9677 19.3487C25.2432 18.4443 28.861 18.151 32.3077 19.0309C31.6966 24.1394 28.5431 28.4657 24.1431 30.7388Z" fill="#B2FF02"/>
</svg>
