<svg width="35" height="35" viewBox="0 0 35 35" fill="none" xmlns="http://www.w3.org/2000/svg">
<path fill-rule="evenodd" clip-rule="evenodd" d="M34.8437 10.2473C34.7703 8.41413 34.4769 7.14314 34.0369 6.04323C33.5969 4.87 32.9125 3.84342 32.0325 2.96349C31.1769 2.08357 30.1258 1.39918 28.9769 0.959219C27.8768 0.5437 26.6058 0.225954 24.7724 0.152627C22.9146 0.0548576 22.3279 0.0548553 17.6345 0.0548553C12.9411 0.0548553 12.3544 0.0792999 10.4966 0.152627C8.66328 0.225954 7.39223 0.5437 6.29221 0.959219C5.11887 1.39918 4.09216 2.08357 3.21215 2.96349C2.33214 3.81897 1.64767 4.86999 1.20767 6.01878C0.792106 7.11869 0.474282 8.38969 0.400948 10.2229C0.303169 12.0805 0.303223 12.6671 0.303223 17.36C0.303223 22.053 0.327614 22.6396 0.400948 24.4972C0.474282 26.3304 0.792106 27.6014 1.20767 28.7013C1.64767 29.8745 2.33214 30.9011 3.21215 31.781C4.06772 32.6609 5.11884 33.3453 6.26775 33.7853C7.36776 34.2008 8.63881 34.5186 10.4722 34.5919C12.33 34.6652 12.9166 34.6896 17.61 34.6896C22.3034 34.6896 22.8902 34.6652 24.748 34.5919C26.5813 34.5186 27.8524 34.2008 28.9524 33.7853C31.2746 32.8809 33.108 31.0477 34.0125 28.7257C34.428 27.6258 34.7459 26.3548 34.8192 24.5216C34.8925 22.664 34.9169 22.0774 34.9169 17.3845C34.9169 12.6915 34.917 12.1049 34.8192 10.2473H34.8437ZM31.7147 24.375C31.6413 26.0615 31.348 26.9903 31.128 27.5769C30.5413 29.0924 29.3436 30.29 27.828 30.8766C27.2169 31.1211 26.3125 31.3899 24.6258 31.4633C22.7924 31.5366 22.2545 31.561 17.6345 31.561C13.0144 31.561 12.4522 31.5366 10.6433 31.4633C8.95661 31.3899 8.02772 31.0966 7.44105 30.8766C6.68326 30.6078 5.99881 30.1678 5.46103 29.5812C4.8988 29.019 4.45872 28.3346 4.16538 27.6014C3.92094 26.9903 3.65207 26.0615 3.57873 24.3994C3.5054 22.5662 3.48101 22.0285 3.48101 17.4089C3.48101 12.7893 3.5054 12.2271 3.57873 10.4184C3.65207 8.73188 3.94538 7.80308 4.16538 7.21646C4.43428 6.45875 4.87435 5.77436 5.46103 5.23663C6.02326 4.67446 6.7077 4.2345 7.44105 3.94119C8.05217 3.69676 8.98106 3.42789 10.6433 3.35457C12.4767 3.28124 13.0144 3.2568 17.6345 3.2568C22.2545 3.2568 22.8169 3.28124 24.6258 3.35457C26.3125 3.42789 27.2414 3.72121 27.828 3.94119C28.5858 4.21005 29.2703 4.65001 29.808 5.23663C30.3703 5.7988 30.8102 6.48319 31.1035 7.21646C31.348 7.82752 31.6169 8.75632 31.6902 10.4184C31.7635 12.2516 31.7881 12.7893 31.7881 17.4089C31.7881 22.0285 31.7635 22.5662 31.6902 24.3994L31.7147 24.375Z" fill="#B2FF02"/>
<path fill-rule="evenodd" clip-rule="evenodd" d="M17.6097 8.4883C12.6963 8.4883 8.71191 12.4724 8.71191 17.3853C8.71191 22.2982 12.6963 26.2823 17.6097 26.2823C22.523 26.2823 26.5076 22.2982 26.5076 17.3853C26.5076 12.4724 22.523 8.4883 17.6097 8.4883ZM17.6097 23.1537C14.4319 23.1537 11.8408 20.5628 11.8408 17.3853C11.8408 14.2078 14.4319 11.6169 17.6097 11.6169C20.7875 11.6169 23.3787 14.2078 23.3787 17.3853C23.3787 20.5628 20.7875 23.1537 17.6097 23.1537Z" fill="#B2FF02"/>
<path fill-rule="evenodd" clip-rule="evenodd" d="M28.9527 8.14478C28.9527 9.29357 28.0238 10.2224 26.875 10.2224C25.7261 10.2224 24.7971 9.29357 24.7971 8.14478C24.7971 6.99598 25.7261 6.06718 26.875 6.06718C28.0238 6.06718 28.9527 6.99598 28.9527 8.14478Z" fill="#B2FF02"/>
</svg>
